<svg height="512" width="512" xmlns="http://www.w3.org/2000/svg"><g fill="#76e6d5"><path d="M415.093 504.5h-26.861l-66.116-59.664-8.601-59.664h29.41c-.001.001 72.168 44.398 72.168 119.328zm-86.52 0H183.427l6.457-59.663L256 388.591l66.116 56.246z"/><path d="M198.486 385.173l-8.601 59.664-66.117 59.663H96.907c0-74.93 72.169-119.327 72.169-119.327z"/></g><path d="M198.426 385.586l.06-.413h-29.41S96.907 429.57 96.907 504.5h30.043c1.707-69.087 64.446-114.375 71.476-118.914z" fill="#00d6bc"/><path d="M256 388.591L183.427 504.5h-59.659l74.718-119.327h55.37z" fill="#f9f097"/><path d="M127.227 498.976l-3.459 5.523h3.182c.046-1.859.145-3.698.277-5.523z" fill="#fccb88"/><path d="M388.232 504.5h-59.659L256 388.591l2.144-3.418h55.37zm62.825-344.044h-51.911V273.1h51.911c20.831 0 37.719-16.887 37.719-37.719v-37.206c0-20.831-16.887-37.719-37.719-37.719zm-390.114 0h51.911V273.1H60.943c-20.831 0-37.719-16.887-37.719-37.719v-37.206c0-20.831 16.887-37.719 37.719-37.719z" fill="#f9f097"/><circle cx="149.339" cy="84.662" fill="#f9f097" r="36.485"/><path d="M169.339 101.147c-20.15 0-36.485-16.335-36.485-36.485 0-4.878.965-9.529 2.702-13.783-13.315 5.438-22.702 18.512-22.702 33.783 0 20.15 16.335 36.485 36.485 36.485 15.272 0 28.345-9.387 33.783-22.702a36.374 36.374 0 01-13.783 2.702z" fill="#fccb88"/><circle cx="362.661" cy="84.662" fill="#f9f097" r="36.485"/><path d="M346.176 104.661c0-20.15 16.335-36.485 36.485-36.485 4.878 0 9.529.965 13.783 2.702-5.438-13.315-18.511-22.702-33.783-22.702-20.15 0-36.485 16.335-36.485 36.485 0 15.272 9.387 28.345 22.702 33.783a36.366 36.366 0 01-2.702-13.783z" fill="#fccb88"/><circle cx="256" cy="227.397" fill="#76e6d5" r="180.109"/><path d="M105.891 227.397c0-94.419 72.657-171.858 165.109-179.482a182.418 182.418 0 00-15-.627c-99.471 0-180.109 80.638-180.109 180.109S156.529 407.506 256 407.506c5.052 0 10.053-.219 15-.626-92.452-7.625-165.109-85.064-165.109-179.483z" fill="#00d6bc"/><path d="M381.196 227.397c0 69.144-56.052 125.196-125.196 125.196s-125.196-56.052-125.196-125.196z" fill="#da9d81"/><path d="M384.787 134.563h-73.18a37.174 37.174 0 00-27.538 12.203l-.532.586c-14.754 16.27-40.322 16.27-55.076 0l-.532-.586a37.172 37.172 0 00-27.538-12.203h-73.18c-32.649 0-59.117 26.468-59.117 59.117v39.116c0 32.649 26.468 59.117 59.117 59.117h26.618a75 75 0 0034.266-8.285l33.636-17.275a75.005 75.005 0 0168.531-.001l33.64 17.277a74.994 74.994 0 0034.264 8.284h26.618c32.649 0 59.117-26.468 59.117-59.117V193.68c.003-32.649-26.464-59.117-59.114-59.117z" fill="#fccb88"/><path d="M98.096 232.797v-39.116c0-32.649 26.468-59.117 59.117-59.117h-30c-32.649 0-59.117 26.468-59.117 59.117v39.116c0 32.649 26.468 59.117 59.117 59.117h26.618c.71 0 1.42-.011 2.129-.032-32.069-.669-57.864-26.856-57.864-59.085z" fill="#fab659"/><path d="M302.868 54.368c0 25.884-20.983 26.641-46.868 26.641s-46.868-.757-46.868-26.641S230.116 7.5 256 7.5s46.868 20.984 46.868 46.868z" fill="#f9f097"/><path d="M239.132 54.368c0-20.636 13.343-38.145 31.868-44.401A46.788 46.788 0 00256 7.5c-25.884 0-46.868 20.983-46.868 46.868 0 25.884 20.983 26.641 46.868 26.641 5.248 0 10.289-.036 15-.301-18.525-1.043-31.868-5.704-31.868-26.34z" fill="#fccb88"/><path d="M168.261 243.159a7.5 7.5 0 007.5-7.5v-19.185a7.5 7.5 0 00-15 0v19.185a7.5 7.5 0 007.5 7.5zm175.477 0a7.5 7.5 0 007.5-7.5v-19.185a7.5 7.5 0 00-15 0v19.185a7.5 7.5 0 007.5 7.5zm-61.33 50.768a7.5 7.5 0 00-11.309-9.855c-7.981 9.159-22.195 9.185-30.199 0a7.5 7.5 0 00-11.309 9.855c13.978 16.036 38.855 16.019 52.817 0z"/><path d="M60.943 280.6h15.129c10.824 36.553 32.898 69.451 62.891 93.426a191.48 191.48 0 0016.323 11.704c-37.372 28.574-65.878 70.932-65.878 118.771a7.5 7.5 0 007.5 7.5h318.185a7.5 7.5 0 007.5-7.5c0-47.753-28.451-90.154-65.878-118.771 38.844-24.866 66.618-62.596 79.214-105.13h15.129c24.934 0 45.219-20.285 45.219-45.218v-37.207c0-24.934-20.285-45.218-45.219-45.218h-13.605a67.12 67.12 0 00-16.692-15.301 187.374 187.374 0 00-20.51-30.173c17.629-29.067-3.203-66.806-37.589-66.806a43.923 43.923 0 00-32.52 14.394 185.617 185.617 0 00-20.197-7.372C306.644 20.857 283.719 0 256 0s-50.644 20.856-53.944 47.698a185.617 185.617 0 00-20.197 7.372 43.928 43.928 0 00-32.52-14.394c-34.401 0-55.208 37.754-37.589 66.806a187.374 187.374 0 00-20.51 30.173 67.156 67.156 0 00-16.692 15.301H60.943c-24.934 0-45.219 20.285-45.219 45.218v37.207c0 24.934 20.285 45.219 45.219 45.219zm63.315-138.446c3.065-.177.177-.048 76.135-.091 8.703-.005 16.656 3.966 22.513 10.327 17.706 19.526 48.476 19.545 66.187.002.25-.182 8.075-10.329 22.515-10.329 80.381.084 79.64-1.056 91.129 3.225 19.643 7.309 33.668 26.24 33.668 48.393 0 42.581.202 41.693-.605 47.019-3.85 24.953-25.497 43.714-51.012 43.714H363.31c-2.779-.258-18.186 1.679-35.978-7.455l-33.641-17.277c-23.512-12.068-51.686-12.17-75.384.001l-33.636 17.275c-17.803 9.143-33.284 7.194-35.979 7.457-18.54-.441-25.277 1.261-37.032-2.399-20.676-6.549-36.063-25.992-36.063-49.218.002-53.139-.037-35.519.001-39.187.034-27.422 21.602-49.932 48.66-51.457zM137.313 497l57.655-92.078a185.18 185.18 0 0036.617 8.53L179.274 497zm111.093-82.146c4.951.192 9.787.21 15.188 0L315.028 497H196.972zm-110.08 7.176c12.498-14.249 25.156-23.885 31.134-28.083a183.965 183.965 0 0011.29 5.42L119.616 497h-14.953c1.798-26.339 13.1-51.525 33.663-74.97zM407.331 497h-14.946l-22.555-36.02a7.5 7.5 0 00-13.087 7.29c.322.652-.589-.893 17.944 28.73h-41.961l-52.312-83.548a185.11 185.11 0 0036.617-8.53l24.277 38.772a7.5 7.5 0 1012.713-7.96l-22.771-36.367a184.792 184.792 0 0011.289-5.419c13.466 9.472 60.851 46.649 64.792 103.052zm-89.864-108.26h-.002c-54.315 20.707-119.279 13.419-169.136-26.432-23.378-18.687-41.533-43.258-52.592-70.769 18.029 9.683 32.162 7.704 48.823 7.874a133.051 133.051 0 0026.618 30.01 7.501 7.501 0 009.596-11.53 118.414 118.414 0 01-18.226-18.947c19.466-2.109 28.966-8.632 62.613-25.921 19.459-9.995 42.524-9.837 61.678-.001 35.925 18.414 33.869 17.485 37.391 19.075a83.388 83.388 0 0025.221 6.847c-34.824 45.387-95.972 58.421-145.356 34.107a7.5 7.5 0 10-6.626 13.458c59.643 29.365 132.985 10.057 169.996-47.097 11.814-.766 28.555 3 48.8-7.875-17.848 44.4-53.499 79.932-98.798 97.201zM446.25 167.957h4.807c16.663 0 30.219 13.556 30.219 30.218v37.207c0 16.663-13.556 30.218-30.219 30.218h-8.277c5.155-9.048 8.06-19.1 8.545-29.685.107-2.347.087.777.079-42.234 0-8.988-1.843-17.835-5.154-25.724zM344.583 62.002c18.807-15.011 47.063-1.686 47.063 22.659 0 3.773-.741 7.491-2.147 10.942-12.953-13.149-28.251-24.675-44.916-33.601zM256 15c20.228 0 38.702 15.563 39.368 39.368 0 14.596-5.429 19.141-39.368 19.141-8.591 0-23.848-.104-31.577-3.692-5.61-2.77-7.791-7.497-7.791-15.449 0-.101.021-.864.021-.764l-.001-.032C217.079 32.232 234.559 15 256 15zM122.501 95.604c-7.771-19.077 6.335-39.927 26.838-39.927a28.955 28.955 0 0118.078 6.326c-16.839 9.018-32.085 20.581-44.916 33.601zm-7.787 32.64c20.892-29.684 51.46-53.119 87.763-64.967 2.076 10.161 8.07 17.235 17.574 21.073 9.542 3.853 21.417 4.159 35.949 4.159 24.376 0 48.546-.917 53.522-25.232 34.864 11.378 65.997 34.041 87.763 64.967-8.432-1.614-6.604-1.15-85.678-1.181a44.761 44.761 0 00-33.101 14.672c-.235.232-2.709 3.434-7.456 6.244-11.295 6.682-26.985 5.416-37.035-5.667-.344-.249-12.027-15.249-33.624-15.249-70.766.419-74.628-.934-85.677 1.181zm-83.99 69.931c0-16.663 13.556-30.218 30.219-30.218h4.807c-2.869 6.838-4.488 13.92-4.978 21.13-.236 3.43-.175-1.272-.175 43.762.008 11.197 2.761 22.461 8.624 32.751h-8.278c-16.663 0-30.219-13.556-30.219-30.218z"/></svg>