<svg height="512" width="512" xmlns="http://www.w3.org/2000/svg"><path d="M345.809 365.452s73.053 29.353 73.053 139.048H93.137c0-109.695 73.053-139.048 73.053-139.048z" fill="#5bd6fd"/><path d="M190.19 365.452h-24S93.137 394.805 93.137 504.5h24c0-109.695 73.053-139.048 73.053-139.048z" fill="#00c4fc"/><path d="M27.004 34.118h31.385v145.113H27.004zm426.607 0h31.385v145.113h-31.385z" fill="#ffa2e7"/><circle cx="74.133" cy="193.293" fill="#f9f097" r="57.731"/><circle cx="437.866" cy="193.293" fill="#f9f097" r="57.731"/><circle cx="256" cy="193.293" fill="#5bd6fd" r="181.867"/><path d="M104.133 193.293c0-95.391 73.443-173.618 166.867-181.247-4.948-.404-9.948-.62-15-.62-100.442 0-181.867 81.424-181.867 181.867 0 100.442 81.425 181.867 181.867 181.867 5.052 0 10.053-.216 15-.62-93.424-7.629-166.867-85.856-166.867-181.247z" fill="#00c4fc"/><path d="M125.314 141.675v193.467c0 29.664 24.047 53.711 53.711 53.711h153.95c29.664 0 53.711-24.047 53.711-53.711V141.675z" fill="#77718c"/><path d="M125.314 189.072a50.246 50.246 0 0016.359 2.736h228.654c5.725 0 11.225-.972 16.359-2.736v-47.396H125.314z" fill="#5c586f"/><path d="M370.327 107.814H141.673c-11.31 0-20.479 9.169-20.479 20.479v13.035c0 11.31 9.169 20.479 20.479 20.479h228.654c11.31 0 20.479-9.169 20.479-20.479v-13.035c0-11.31-9.169-20.479-20.479-20.479z" fill="#f9f097"/><ellipse cx="256.027" cy="236.179" fill="#423e4f" rx="19.443" ry="21.757"/><path d="M27.003 88.507a56.435 56.435 0 0015.692 2.229c5.445 0 10.706-.788 15.693-2.229V34.118H27.003z" fill="#ff8ce2"/><circle cx="42.696" cy="34.118" fill="#f9f097" r="26.618"/><path d="M453.611 88.507c4.987 1.441 10.248 2.229 15.692 2.229s10.706-.788 15.692-2.229V34.118H453.61v54.389z" fill="#ff8ce2"/><circle cx="469.304" cy="34.118" fill="#f9f097" r="26.618"/><path d="M295.693 435.148H216.36c-17.932 0-32.469 14.537-32.469 32.469V504.5h144.271v-36.882c0-17.933-14.537-32.47-32.469-32.47z" fill="#ffa2e7"/><path d="M246.36 435.148h-30c-17.932 0-32.469 14.537-32.469 32.469V504.5h30v-36.882c0-17.933 14.537-32.47 32.469-32.47z" fill="#ff8ce2"/><circle cx="256" cy="61.642" fill="#f9f097" r="19.47"/><path d="M256.027 206.922c-14.856 0-26.943 13.125-26.943 29.256 0 16.133 12.086 29.257 26.943 29.257s26.943-13.125 26.943-29.257c0-16.131-12.087-29.256-26.943-29.256zm0 43.514c-6.585 0-11.943-6.396-11.943-14.257s5.358-14.256 11.943-14.256c6.586 0 11.943 6.396 11.943 14.256 0 7.861-5.357 14.257-11.943 14.257zm-73.54-51.071c-13.121 0-23.796 10.675-23.796 23.796a7.5 7.5 0 0015 0c0-4.851 3.946-8.796 8.796-8.796s8.797 3.946 8.797 8.796a7.5 7.5 0 0015 0c-.001-13.121-10.675-23.796-23.797-23.796zm145.675 0c-13.121 0-23.796 10.675-23.796 23.796a7.5 7.5 0 0015 0c0-4.851 3.946-8.796 8.796-8.796s8.797 3.946 8.797 8.796a7.5 7.5 0 0015 0c0-13.121-10.675-23.796-23.797-23.796zM229.03 61.643c0 14.871 12.099 26.97 26.97 26.97s26.97-12.099 26.97-26.97c0-14.872-12.099-26.97-26.97-26.97-14.871-.001-26.97 12.098-26.97 26.97zm38.94 0c0 6.6-5.37 11.97-11.97 11.97-6.601 0-11.97-5.37-11.97-11.97 0-6.601 5.37-11.97 11.97-11.97 6.6-.001 11.97 5.369 11.97 11.97z"/><path d="M19.503 59.111v98.6c-29.009 44.388 4.908 103.973 58.609 100.679 8.652 23.662 22.051 45.521 39.701 64.348v12.405c0 16.5 6.575 31.486 17.228 42.506-9.131 8.306-17.209 17.979-24.044 28.9a7.5 7.5 0 0012.715 7.958c6.529-10.433 14.288-19.598 23.108-27.307 9.774 6.08 20.868 9.154 32.204 9.154h153.95c11.328 0 22.42-3.069 32.199-9.151 31.398 27.535 44.713 67.849 46.068 109.797h-37.635v-40.928a7.5 7.5 0 00-15 0V497h-22.945v-29.382c0-22.039-17.93-39.969-39.969-39.969h-79.333c-22.039 0-39.97 17.93-39.97 39.969V497H153.39v-40.928a7.5 7.5 0 00-15 0V497h-37.633c.657-20.121 3.976-38.692 9.892-55.297a7.5 7.5 0 00-14.13-5.034c-7.222 20.27-10.884 43.092-10.884 67.832a7.5 7.5 0 007.5 7.5h325.726a7.5 7.5 0 007.5-7.5c0-33.191-6.512-62.61-19.355-87.438-7.899-15.27-17.984-28.492-30.032-39.431 10.643-11.018 17.211-25.996 17.211-42.488V322.74c17.65-18.827 31.049-40.687 39.701-64.349 53.561 3.285 87.719-56.138 58.609-100.679V59.111c6.714-6.235 10.926-15.129 10.926-24.993C503.422 15.305 488.117 0 469.304 0s-34.118 15.305-34.118 34.118c0 9.863 4.211 18.758 10.926 24.993v69.491c-4.705-.597-8.404-.64-12.245-.403-11.411-31.22-30.997-59.22-57.376-81a7.5 7.5 0 10-9.551 11.566c72.507 59.866 84.667 166.515 27.246 240.882V155.925a27.808 27.808 0 004.12-14.597v-13.034c0-15.428-12.551-27.979-27.979-27.979H141.673c-15.428 0-27.979 12.552-27.979 27.979v13.034a27.811 27.811 0 004.12 14.597v143.723c-11.802-15.285-21.115-32.536-27.432-51.697C53.366 135.726 137.153 18.927 256 18.927c30.55 0 60.607 8.015 86.921 23.177a7.501 7.501 0 007.489-12.997C249.002-29.325 118.648 17.935 78.161 128.2c-3.92-.243-7.623-.188-12.272.401v-69.49c6.714-6.235 10.926-15.129 10.926-24.993C76.815 15.305 61.509 0 42.696 0S8.577 15.305 8.577 34.118c0 9.863 4.212 18.758 10.926 24.993zm171.888 408.507c0-13.768 11.201-24.969 24.97-24.969h79.333c13.768 0 24.969 11.201 24.969 24.969V497H191.391zM469.304 15c10.542 0 19.118 8.576 19.118 19.118 0 6.446-3.238 12.41-8.65 15.979-5.602 3.686-11.477 3.139-10.468 3.139-.919-.108-5.766.142-10.861-3.404-4.982-3.454-8.257-9.206-8.257-15.714 0-10.542 8.576-19.118 19.118-19.118zm-8.192 117.349v-65.1a34.63 34.63 0 0016.385 0v74.26c-5.065-3.864-10.682-6.978-16.385-9.16zm-22.492 10.718c27.224.404 49.478 22.685 49.478 50.226 0 27.439-22.116 49.81-49.458 50.225 8.989-32.823 8.919-67.875-.02-100.451zm-59.434 192.075c0 25.419-20.654 46.211-46.211 46.211-165.764-.054-155.848.287-161.011-.54-22.142-3.409-39.15-22.591-39.15-45.671V167.884c3.293 1.098 6.133 1.356 8.859 1.423 241.292-.001 231.14.694 237.513-1.423v151.871zM128.694 128.294c0-7.157 5.823-12.979 12.979-12.979h228.654c7.157 0 12.979 5.822 12.979 12.979v13.034c0 7.155-5.896 12.979-12.979 12.979-238.318-.258-230.665 1.239-235.778-2.143-3.6-2.392-5.855-6.436-5.855-10.837zM68.38 219.04a188.707 188.707 0 004.98 24.478c-27.342-.415-49.458-22.786-49.458-50.225 0-27.39 22.087-49.819 49.478-50.226-5.545 20.19-8.47 50.638-5 75.973zM50.889 67.249v65.1c-5.624 2.149-11.241 5.24-16.386 9.161V67.25a34.79 34.79 0 0016.386-.001zM42.696 15c10.542 0 19.119 8.576 19.119 19.118 0 15.366-17.372 24.483-29.982 15.713-4.981-3.454-8.255-9.206-8.255-15.713C23.577 23.576 32.154 15 42.696 15z"/></svg>